<mxfile host="app.diagrams.net" modified="2023-10-16T09:26:50.532Z" agent="Mozilla/5.0 (Windows NT 10.0; Win64; x64) AppleWebKit/537.36 (KHTML, like Gecko) Chrome/117.0.0.0 Safari/537.36" version="22.0.4" etag="sSWLGcGdBuYH3_wSYswB" type="github">
  <diagram name="Sida-1" id="ZI5H2mgjSetJtlMQ2YJp">
    <mxGraphModel>
      <root>
        <mxCell id="0" />
        <mxCell id="1" parent="0" />
      </root>
    </mxGraphModel>
  </diagram>
</mxfile>
